<?xml version="1.0" encoding="UTF-8"?>
<svg xmlns="http://www.w3.org/2000/svg" width="257" height="41" viewBox="0 0 257 41" fill="none">
  <mask id="mask0_1_1493" style="mask-type:luminance" maskUnits="userSpaceOnUse" x="0" y="0" width="257" height="41">
    <path d="M0 0.102406H256.431V41H0V0.102406Z" fill="white"></path>
  </mask>
  <g mask="url(#mask0_1_1493)">
    <path d="M237.862 12.1729C237.315 12.1197 236.762 12.0725 236.193 12.0715L221.127 12.1487C220.841 12.1499 220.524 12.3811 220.416 12.6663L217.397 20.6574C217.289 20.9466 217.432 21.1836 217.721 21.1836C220.373 21.1824 232.039 21.1779 232.039 21.1779C232.864 21.1755 233.71 21.1249 234.561 21.048C236.298 20.8906 237.658 19.9328 238.408 18.2634C238.904 17.1612 239.327 16.0417 239.652 14.9402C240.141 13.2851 239.473 12.3294 237.862 12.1729Z" fill="#212121"></path>
    <path d="M244.245 20.2897C242.231 24.4659 238.762 26.6746 234.359 26.8187L215.585 26.9355C215.283 26.9372 214.948 27.1793 214.835 27.4814C214.429 28.5634 212.612 33.4244 211.917 35.2825C211.754 35.7204 211.338 36.0079 210.871 36.0077L206.334 36.0079C205.68 36.0103 205.021 35.8901 205.205 35.198C205.287 34.8879 205.4 34.574 205.517 34.2618L214.526 10.1267C214.635 9.83561 214.851 9.55473 215.129 9.34175L218.99 6.39232C219.294 6.16011 219.647 6.0281 219.965 6.0281H240.139C247.279 6.0281 248.063 10.1338 247.026 12.8969C245.99 15.6601 244.245 20.2897 244.245 20.2897ZM203.707 25.7987C203.221 27.0632 202.53 28.3525 201.761 29.5827C199.498 33.2019 196.266 35.0966 192.474 35.6983C191.047 35.9248 189.631 36.034 188.265 36.0457C183.54 36.0863 178.806 36.1418 174.146 36.0179C172.398 35.9713 170.69 35.6615 169.229 35.0997C166.202 33.9372 165.676 31.1421 166.768 27.7086C167.804 24.4484 172.219 12.6098 173.162 10.0837C173.277 9.77744 173.508 9.48634 173.806 9.27051L177.839 6.35266C178.134 6.13897 178.47 6.01931 178.773 6.01931L180.126 6.01978C181.115 6.02738 181.269 6.28904 180.889 7.30289L174.492 24.3831C174.219 25.1182 174.001 25.8656 173.876 26.585C173.541 28.5206 174.319 29.6662 176.311 29.7171C181.056 29.8386 185.847 29.845 190.627 29.8771C191.162 29.8806 191.741 29.7921 192.311 29.6774C194.095 29.3186 195.86 27.9498 196.697 26.275C197.145 25.3798 197.546 24.4726 197.887 23.5703L203.951 7.42944C204.419 6.18338 204.647 6.02073 205.923 6.01765C207.237 6.01456 208.552 6.01028 209.862 6.01954C210.871 6.02643 211.056 6.29284 210.691 7.2668L203.707 25.7987ZM156.414 36.0613C155.102 36.0628 153.8 36.0336 152.474 36.0718C151.64 36.0958 151.488 35.6848 151.741 34.9444C151.829 34.6885 159.902 13.1801 159.902 13.1801C160.352 11.9818 160.272 11.8576 159.087 11.8512C158.461 11.8476 157.838 11.8343 157.204 11.8526C156.48 11.8735 156.253 11.4993 156.485 10.8343L156.749 10.1267C156.863 9.82232 157.093 9.53027 157.388 9.31468L161.443 6.35836C161.727 6.15108 162.048 6.0307 162.344 6.02145C162.842 6.00578 165.968 6.05706 167.745 6.08793C168.348 6.09861 168.756 6.70194 168.545 7.26703L158.329 34.6923C157.885 35.8728 157.618 36.0599 156.414 36.0613ZM253.83 1.51207H156.628C156.224 1.51207 155.774 1.83949 155.622 2.24384C155.622 2.24384 142.532 37.3197 142.192 38.2552C141.851 39.1907 142.111 39.5908 143.164 39.5908H240.364C240.768 39.5908 241.219 39.2632 241.37 38.859C241.37 38.859 254.568 3.70217 254.856 2.91507C255.143 2.12797 254.694 1.51207 253.83 1.51207Z" fill="#212121"></path>
    <path d="M76.6293 10.5558C75.9173 10.5473 75.5789 10.7885 75.3182 11.488L68.4758 29.7306C68.2317 30.3774 68.373 30.6543 69.0326 30.6483C74.8915 30.5963 80.7258 30.6132 86.6095 30.4909C89.576 30.4294 92.2547 28.5886 93.5507 25.6783C94.9114 22.6223 96.0898 19.5437 97.1533 16.4805C97.5581 15.3147 97.6467 14.0642 97.4824 13.0277C97.1811 11.1252 95.4202 10.6605 93.4583 10.6078C90.7278 10.5347 79.4724 10.59 76.6293 10.5558ZM69.5948 7.46938L74.306 4.03843C74.637 3.79743 75.0114 3.66114 75.3524 3.65972C77.8744 3.64856 88.8069 3.60772 95.3215 3.71029C97.5227 3.74496 99.6737 4.06834 101.578 4.66906C105.657 5.95548 106.831 9.31093 105.452 13.8611C104.125 18.2449 102.403 22.6814 100.496 27.0723C98.3029 32.1223 92.9476 36.2518 87.6656 36.9924C85.7262 37.2642 83.7973 37.4131 81.9339 37.424C74.7621 37.4665 67.6153 37.4418 60.4592 37.4418C58.1936 37.4418 58.0571 37.2153 58.9278 34.8942L68.8763 8.38041C69.0046 8.03875 69.2629 7.71108 69.5948 7.46938Z" fill="#212121"></path>
    <path d="M113.346 23.511C112.173 26.6352 110.172 30.6801 114.952 30.6801H137.43C138.974 30.6801 139.061 31.0223 138.477 32.6003C138.026 33.8162 137.622 34.8564 137.166 36.0721C136.808 37.0263 136.303 37.4392 135.274 37.4392H114.091C107.069 37.4392 101.522 35.757 104.165 28.7127C105.88 24.1165 108.488 17.1418 110.196 12.6379C112.79 5.72397 120.606 3.66302 126.763 3.66302H144.583C144.926 3.66279 145.204 3.79884 145.355 4.0415L147.517 7.51043C147.67 7.75594 147.681 8.0874 147.548 8.43406C147.491 8.58174 147.325 9.0058 147.325 9.0058L147.047 9.70007C146.835 10.231 146.321 10.5793 145.75 10.5793H122.494C117.552 10.5793 116.581 14.8866 115.614 17.4659H142.088C143.688 17.4661 143.796 17.6402 143.207 19.2174C142.86 20.1453 142.515 21.0735 142.161 22.0014C141.674 23.2788 141.362 23.5105 140.076 23.511H113.346Z" fill="#212121"></path>
    <path d="M52.946 35.609C52.3239 37.2646 52.0792 37.4413 50.4682 37.4415C48.96 37.442 47.4608 37.4175 45.9412 37.4505C45.0743 37.4693 44.8452 37.0666 45.1135 36.2572C45.1983 36.0015 45.2937 35.7453 45.3899 35.4896L56.9485 4.53127C57.1437 4.00867 57.6418 3.66202 58.1998 3.66202C59.0246 3.66202 60.1218 3.66178 60.2562 3.66178C60.5991 3.66178 60.8766 3.79854 61.0274 4.04144L63.1382 7.44199C63.2883 7.6837 63.3006 8.01113 63.1726 8.35209L52.946 35.609Z" fill="#212121"></path>
    <path d="M49.8283 7.42191L47.6997 4.00734C47.5485 3.76445 47.2709 3.62815 46.9281 3.62792L14.8165 3.61581C14.3103 3.61557 13.8549 3.92353 13.6666 4.39365L11.5454 9.6906C11.4231 10.0145 11.6596 10.3604 12.0058 10.3599L37.4805 10.3889C40.3896 10.4176 41.0912 11.6309 40.1075 14.5139C39.7801 15.4743 39.4978 16.42 39.0704 17.3781C38.128 19.4917 36.4894 20.6758 34.3323 20.7017H7.86989C7.63601 20.7019 7.42944 20.9059 7.34729 21.125L1.53178 36.5968C1.37198 37.0218 1.68777 37.4751 2.14175 37.4722L8.14507 37.4359C8.63372 37.4324 9.06822 37.1239 9.23276 36.6638L12.5716 27.3337C12.6497 27.1255 12.8465 26.9868 13.069 26.9847L27.5953 26.9263C27.9486 26.9291 28.2704 27.267 28.3938 27.5762L31.8647 36.5401C32.1066 37.1857 32.5072 37.5152 33.3605 37.4896C34.7163 37.4492 38.2002 37.4492 40.0519 37.4525C40.618 37.4535 40.9957 36.8727 40.769 36.3539L36.2095 25.9191C36.1418 25.7643 36.2506 25.59 36.4192 25.5824L38.9051 25.4706C39.2019 25.457 39.5222 25.3457 39.8143 25.1541L44.2113 22.2673C44.586 22.0214 44.8816 21.665 45.0217 21.2903L49.8642 8.33366C49.9922 7.99175 49.9794 7.66385 49.8283 7.42191Z" fill="#212121"></path>
  </g>
</svg>
